<mxfile host="app.diagrams.net" modified="2023-10-23T09:55:54.160Z" agent="Mozilla/5.0 (Macintosh; Intel Mac OS X 10_15_7) AppleWebKit/605.1.15 (KHTML, like Gecko) Version/15.3 Safari/605.1.15" version="21.6.6" etag="K7Xta_xh5f9R-Bf0VwkZ" type="github">
  <diagram name="第 1 页" id="l_AFtrveAvZcVW3UB7RA">
    <mxGraphModel>
      <root>
        <mxCell id="0" />
        <mxCell id="1" parent="0" />
      </root>
    </mxGraphModel>
  </diagram>
</mxfile>
